<?php echo '<?xml version="1.0" encoding="utf8"?>'; ?>
<!-- Generator: Adobe Illustrator 16.0.0, SVG Export Plug-In . SVG Version: 6.00 Build 0)  -->
<!DOCTYPE svg PUBLIC "-//W3C//DTD SVG 1.1//EN" "http://www.w3.org/Graphics/SVG/1.1/DTD/svg11.dtd">
<svg version="1.1" id="Layer_1" xmlns="http://www.w3.org/2000/svg" xmlns:xlink="http://www.w3.org/1999/xlink" x="0px" y="0px"
	 width="530px" height="143px" viewBox="0 0 530 143" enable-background="new 0 0 530 143" xml:space="preserve">
<path fill="#A1DCEB" d="M28.785,95.251c0.552-2.109,1.459-3.892,2.718-5.35c1.255-1.458,2.943-2.603,5.055-3.432
	c2.113-0.827,4.704-1.317,7.775-1.471l6.942-0.45v11.613c0,3.012-0.34,5.741-1.019,8.177c-0.68,2.438-1.662,4.515-2.943,6.22
	c-1.283,1.712-2.819,3.028-4.603,3.961c-1.789,0.929-3.786,1.391-6,1.391c-3.019,0-5.233-1.103-6.64-3.315
	c-1.41-2.21-2.112-5.523-2.112-9.953C27.957,99.829,28.23,97.366,28.785,95.251z M46.784,51.6c1.282,0.854,2.25,2.059,2.905,3.619
	c0.654,1.559,1.079,3.418,1.282,5.58c0.202,2.161,0.303,4.523,0.303,7.088v8.518l-12.68,0.454
	c-11.571,0.354-20.237,2.539-25.998,6.558c-5.761,4.026-8.64,10.232-8.64,18.627c0,4.269,0.628,7.979,1.886,11.117
	c1.256,3.147,2.981,5.758,5.169,7.842c2.187,2.087,4.755,3.635,7.697,4.637c2.945,1.006,6.124,1.511,9.546,1.511
	c2.919,0,5.446-0.241,7.585-0.721c2.137-0.476,4.062-1.212,5.771-2.222c1.711-1.004,3.32-2.271,4.832-3.803
	c1.508-1.537,3.12-3.332,4.83-5.395h1.357l3.246,10.629H84.63v-8.218h-0.604c-1.711,0-3.17-0.177-4.377-0.525
	c-1.207-0.354-2.163-0.943-2.867-1.774c-0.705-0.827-1.22-1.944-1.546-3.357c-0.329-1.404-0.491-3.163-0.491-5.274V67.13
	c0-4.826-0.68-8.91-2.039-12.251c-1.357-3.344-3.383-6.045-6.075-8.106c-2.691-2.061-6.064-3.555-10.112-4.484
	c-4.049-0.931-8.791-1.396-14.224-1.396c-4.377,0-8.491,0.289-12.339,0.865c-3.849,0.578-7.22,1.498-10.112,2.751
	c-2.895,1.259-5.183,2.894-6.867,4.901c-1.686,2.012-2.529,4.424-2.529,7.24c0,3.77,1.748,6.433,5.246,7.99
	c3.495,1.561,8.717,2.338,15.659,2.338c0-2.412,0.164-4.637,0.491-6.673c0.326-2.035,0.891-3.794,1.698-5.278
	c0.803-1.481,1.872-2.639,3.207-3.468c1.333-0.829,2.982-1.243,4.944-1.243C43.803,50.317,45.501,50.745,46.784,51.6z"/>
<path fill="#A1DCEB" d="M134.429,125.602c3.774-1.03,6.88-2.363,9.322-3.996c2.438-1.635,4.237-3.455,5.395-5.468
	c1.155-2.01,1.733-3.997,1.733-5.953c0-1.405-0.301-2.752-0.903-4.036c-0.606-1.279-1.537-2.301-2.793-3.056
	c-0.905,1.762-2.075,3.405-3.509,4.941c-1.435,1.533-3.105,2.865-5.018,3.997c-1.913,1.128-4.039,2.011-6.376,2.641
	c-2.338,0.625-4.844,0.938-7.51,0.938c-6.49,0-11.169-2.585-14.037-7.767c-2.867-5.176-4.301-12.99-4.301-23.447
	c0-6.585,0.34-12.064,1.02-16.437c0.679-4.374,1.661-7.866,2.943-10.48c1.282-2.614,2.817-4.459,4.604-5.541
	c1.785-1.081,3.812-1.622,6.076-1.622c1.962,0,3.584,0.541,4.867,1.622c1.281,1.081,2.301,2.525,3.056,4.334
	c0.753,1.809,1.296,3.921,1.622,6.333c0.328,2.412,0.492,4.953,0.492,7.613c4.023,0,7.332-0.374,9.924-1.127
	c2.591-0.755,4.625-1.735,6.11-2.943c1.488-1.207,2.516-2.601,3.096-4.184c0.578-1.583,0.868-3.205,0.868-4.863
	c0-2.262-0.667-4.386-2-6.371c-1.333-1.986-3.284-3.707-5.847-5.166c-2.567-1.456-5.763-2.601-9.585-3.43
	c-3.824-0.829-8.226-1.242-13.207-1.242c-5.333,0-10.314,0.716-14.942,2.148c-4.63,1.432-8.641,3.834-12.039,7.2
	c-3.394,3.368-6.062,7.84-7.997,13.421c-1.938,5.58-2.907,12.541-2.907,20.887c0,7.889,0.932,14.549,2.791,19.979
	c1.863,5.43,4.48,9.824,7.851,13.194c3.369,3.369,7.406,5.78,12.111,7.24c4.704,1.459,9.898,2.187,15.585,2.187
	C126.152,127.148,130.656,126.632,134.429,125.602z"/>
<path fill="#A1DCEB" d="M248.918,127.545v-8.218h-0.451c-1.764,0-3.297-0.127-4.604-0.379c-1.31-0.251-2.389-0.75-3.244-1.505
	c-0.858-0.757-1.497-1.852-1.925-3.279c-0.429-1.437-0.641-3.358-0.641-5.772V72.58c0-5.228-0.581-9.715-1.737-13.459
	c-1.155-3.743-2.83-6.822-5.017-9.236c-2.188-2.412-4.867-4.196-8.039-5.352c-3.167-1.156-6.741-1.734-10.715-1.734
	c-2.416,0-4.716,0.113-6.904,0.339c-2.19,0.227-4.265,0.753-6.228,1.582c-1.963,0.832-3.81,2.075-5.547,3.735
	c-1.735,1.657-3.383,3.946-4.942,6.859h-1.359c0.203-2.213,0.403-4.471,0.606-6.786c0.147-1.961,0.288-4.095,0.411-6.406
	c0.126-2.312,0.191-4.475,0.191-6.486V10.226h-36.299v8.143h1.812c1.105,0,2.302,0.101,3.586,0.302
	c1.282,0.201,2.477,0.64,3.582,1.318c1.108,0.68,2.023,1.634,2.755,2.865c0.73,1.234,1.094,2.88,1.094,4.939v80.904
	c0,2.307-0.301,4.171-0.906,5.578c-0.604,1.408-1.448,2.489-2.528,3.241c-1.082,0.754-2.35,1.242-3.811,1.471
	c-1.459,0.228-3.065,0.34-4.83,0.34h-0.299v8.218h47.465v-8.218h-0.452c-1.711,0-3.257-0.112-4.641-0.34
	c-1.386-0.229-2.555-0.701-3.509-1.432c-0.957-0.729-1.7-1.747-2.226-3.053c-0.53-1.309-0.793-3.044-0.793-5.204V79.817
	c0-3.167,0.225-6.194,0.677-9.085c0.457-2.89,1.198-5.429,2.226-7.615c1.033-2.186,2.402-3.932,4.113-5.239
	c1.712-1.307,3.851-1.962,6.415-1.962c2.266,0,4.19,0.464,5.776,1.395c1.582,0.93,2.866,2.276,3.847,4.034
	c0.98,1.76,1.686,3.934,2.113,6.522c0.428,2.59,0.642,5.542,0.642,8.86v50.817H248.918z"/>
<g>
	<path d="M314.867,52.303c0,0.367,0.051,0.661,0.154,0.883s0.24,0.392,0.414,0.51c0.172,0.119,0.375,0.197,0.613,0.235
		c0.236,0.039,0.484,0.057,0.744,0.057h0.539v0.986h-7.303v-0.986h0.537c0.26,0,0.508-0.017,0.74-0.051
		c0.232-0.035,0.438-0.105,0.613-0.212c0.176-0.107,0.316-0.265,0.418-0.476c0.104-0.21,0.156-0.487,0.156-0.832V39.381h-2.248
		c-0.344,0-0.633,0.051-0.865,0.155c-0.234,0.103-0.424,0.243-0.574,0.418c-0.148,0.176-0.26,0.38-0.332,0.613
		c-0.072,0.233-0.125,0.48-0.154,0.74l-0.127,1.009h-1.215l0.115-4.105h13.221l0.113,4.105h-1.215l-0.115-1.009
		c-0.029-0.26-0.084-0.506-0.16-0.74c-0.076-0.233-0.188-0.438-0.332-0.613c-0.146-0.176-0.336-0.315-0.574-0.418
		c-0.236-0.104-0.531-0.155-0.883-0.155h-2.281V52.303z"/>
	<path d="M327.641,53.988v0.986h-6.318v-0.986h0.184c0.268,0,0.518-0.019,0.75-0.057c0.234-0.038,0.438-0.116,0.609-0.235
		s0.309-0.289,0.412-0.51s0.154-0.516,0.154-0.883v-12.59c0-0.344-0.051-0.621-0.154-0.832c-0.104-0.21-0.242-0.373-0.418-0.487
		s-0.381-0.189-0.613-0.224c-0.234-0.034-0.48-0.051-0.74-0.051h-0.184v-0.986h4.322v5.16c0,0.214-0.004,0.438-0.012,0.671
		c-0.008,0.233-0.018,0.449-0.033,0.648c-0.016,0.229-0.031,0.455-0.047,0.676h0.115c0.703-1.422,1.854-2.133,3.451-2.133
		c0.664,0,1.256,0.09,1.771,0.27c0.516,0.18,0.949,0.455,1.301,0.826c0.352,0.371,0.619,0.847,0.803,1.428s0.275,1.272,0.275,2.075
		v5.55c0,0.367,0.047,0.661,0.139,0.883s0.217,0.392,0.377,0.51c0.162,0.119,0.352,0.197,0.574,0.235
		c0.221,0.039,0.463,0.057,0.723,0.057h0.068v0.986h-4.082v-8.106c0-0.512-0.045-0.967-0.137-1.365
		c-0.092-0.397-0.24-0.733-0.441-1.009c-0.203-0.275-0.469-0.483-0.797-0.625c-0.33-0.141-0.73-0.212-1.205-0.212
		c-0.488,0-0.912,0.09-1.268,0.27s-0.648,0.436-0.883,0.768c-0.232,0.333-0.406,0.734-0.521,1.204
		c-0.113,0.47-0.172,0.992-0.172,1.565v4.953c0,0.344,0.053,0.621,0.154,0.832c0.104,0.21,0.244,0.369,0.42,0.476
		c0.176,0.107,0.379,0.178,0.613,0.212c0.232,0.034,0.479,0.051,0.738,0.051H327.641z"/>
	<path d="M342.547,55.204c-0.85,0-1.611-0.144-2.289-0.43c-0.676-0.287-1.246-0.705-1.713-1.255s-0.824-1.225-1.072-2.024
		s-0.373-1.707-0.373-2.723c0-2.194,0.451-3.845,1.354-4.954c0.902-1.108,2.186-1.663,3.852-1.663c0.758,0,1.438,0.119,2.041,0.355
		c0.605,0.237,1.117,0.591,1.537,1.061c0.42,0.47,0.744,1.055,0.969,1.754c0.227,0.7,0.338,1.512,0.338,2.437v1.078h-7.818
		c0.014,0.856,0.1,1.592,0.258,2.207c0.156,0.616,0.381,1.122,0.676,1.52s0.656,0.69,1.084,0.877
		c0.428,0.188,0.92,0.281,1.479,0.281c0.404,0,0.781-0.046,1.129-0.137c0.348-0.092,0.664-0.214,0.947-0.367
		c0.281-0.153,0.533-0.327,0.75-0.521c0.219-0.195,0.396-0.399,0.533-0.614c0.107,0.046,0.209,0.142,0.305,0.287
		c0.096,0.146,0.143,0.317,0.143,0.516c0,0.237-0.084,0.491-0.252,0.763s-0.424,0.521-0.768,0.751s-0.775,0.42-1.291,0.573
		S343.242,55.204,342.547,55.204z M342.26,43.417c-0.871,0-1.543,0.354-2.012,1.061c-0.471,0.707-0.748,1.741-0.832,3.102h5.4
		c0-0.619-0.045-1.185-0.137-1.697c-0.092-0.512-0.238-0.952-0.436-1.318c-0.199-0.367-0.461-0.65-0.787-0.849
		C343.133,43.516,342.734,43.417,342.26,43.417z"/>
	<path d="M359.217,49.368l-0.895,2.465c-0.068,0.183-0.121,0.365-0.16,0.544c-0.039,0.18-0.057,0.334-0.057,0.464
		c0,0.397,0.127,0.688,0.383,0.872s0.648,0.275,1.176,0.275h0.539v0.986h-5.732v-0.986h0.447c0.229,0,0.424-0.024,0.584-0.074
		s0.307-0.144,0.436-0.281c0.131-0.138,0.254-0.325,0.373-0.562s0.25-0.542,0.396-0.917l5.205-13.943h1.834l5.309,14.528
		c0.092,0.245,0.186,0.447,0.281,0.607c0.096,0.161,0.209,0.289,0.338,0.384c0.131,0.096,0.279,0.163,0.447,0.201
		c0.168,0.039,0.367,0.057,0.596,0.057h0.311v0.986h-6.455v-0.986h0.539c0.939,0,1.41-0.374,1.41-1.124
		c0-0.13-0.018-0.264-0.053-0.401c-0.033-0.137-0.082-0.294-0.143-0.47l-0.939-2.626H359.217z M363.506,44.082
		c-0.244-0.696-0.469-1.348-0.672-1.955c-0.201-0.608-0.367-1.194-0.498-1.76c-0.053,0.283-0.117,0.556-0.189,0.82
		s-0.15,0.533-0.234,0.809c-0.084,0.275-0.18,0.563-0.287,0.866c-0.107,0.302-0.229,0.636-0.367,1.003l-1.594,4.323h5.297
		L363.506,44.082z"/>
	<path d="M375.957,55.204c-0.588,0-1.121-0.052-1.6-0.155c-0.477-0.104-0.885-0.26-1.221-0.47s-0.596-0.47-0.779-0.78
		s-0.275-0.671-0.275-1.083c0-0.313,0.051-0.575,0.154-0.786c0.104-0.21,0.23-0.376,0.379-0.499s0.309-0.208,0.48-0.258
		s0.328-0.075,0.465-0.075c0,0.413,0.043,0.799,0.127,1.158s0.225,0.674,0.424,0.946s0.461,0.485,0.785,0.642
		s0.725,0.235,1.199,0.235c0.42,0,0.791-0.051,1.111-0.155c0.32-0.103,0.59-0.248,0.809-0.436c0.217-0.187,0.385-0.413,0.498-0.676
		c0.115-0.264,0.172-0.552,0.172-0.866c0-0.291-0.043-0.541-0.131-0.751c-0.088-0.21-0.24-0.407-0.459-0.59
		s-0.514-0.371-0.889-0.562c-0.375-0.191-0.844-0.409-1.41-0.653c-0.604-0.268-1.129-0.525-1.576-0.774s-0.816-0.518-1.107-0.809
		c-0.291-0.29-0.508-0.621-0.652-0.992c-0.146-0.371-0.219-0.812-0.219-1.324c0-0.535,0.105-1.009,0.314-1.422
		c0.211-0.413,0.512-0.758,0.9-1.038c0.391-0.279,0.857-0.491,1.4-0.636c0.541-0.146,1.146-0.218,1.811-0.218
		c0.559,0,1.051,0.058,1.479,0.172c0.43,0.115,0.787,0.27,1.078,0.464s0.508,0.424,0.654,0.688c0.145,0.264,0.217,0.541,0.217,0.831
		c0,0.428-0.146,0.771-0.441,1.026c-0.293,0.256-0.713,0.384-1.254,0.384c0-0.788-0.164-1.399-0.488-1.835
		c-0.324-0.436-0.836-0.653-1.531-0.653c-0.396,0-0.736,0.046-1.02,0.138c-0.283,0.091-0.514,0.222-0.693,0.39
		c-0.18,0.168-0.312,0.367-0.396,0.596s-0.125,0.481-0.125,0.757c0,0.298,0.053,0.556,0.16,0.774s0.277,0.418,0.51,0.602
		s0.535,0.361,0.906,0.533s0.816,0.365,1.336,0.579c0.619,0.26,1.15,0.516,1.594,0.768s0.809,0.527,1.094,0.826
		c0.287,0.298,0.5,0.634,0.637,1.009c0.139,0.375,0.207,0.807,0.207,1.296c0,0.611-0.111,1.146-0.332,1.605
		c-0.223,0.459-0.535,0.843-0.941,1.152c-0.404,0.31-0.893,0.541-1.461,0.694C377.285,55.127,376.652,55.204,375.957,55.204z"/>
	<path d="M386.553,55.204c-0.59,0-1.123-0.052-1.6-0.155c-0.479-0.104-0.885-0.26-1.223-0.47c-0.336-0.21-0.596-0.47-0.779-0.78
		s-0.275-0.671-0.275-1.083c0-0.313,0.053-0.575,0.156-0.786c0.102-0.21,0.229-0.376,0.377-0.499
		c0.15-0.122,0.311-0.208,0.482-0.258s0.326-0.075,0.465-0.075c0,0.413,0.041,0.799,0.125,1.158s0.227,0.674,0.424,0.946
		c0.199,0.271,0.461,0.485,0.787,0.642c0.324,0.157,0.723,0.235,1.197,0.235c0.42,0,0.791-0.051,1.113-0.155
		c0.32-0.103,0.59-0.248,0.807-0.436c0.219-0.187,0.385-0.413,0.5-0.676c0.113-0.264,0.172-0.552,0.172-0.866
		c0-0.291-0.045-0.541-0.133-0.751c-0.088-0.21-0.24-0.407-0.457-0.59c-0.219-0.184-0.516-0.371-0.889-0.562
		c-0.375-0.191-0.846-0.409-1.412-0.653c-0.604-0.268-1.129-0.525-1.576-0.774s-0.816-0.518-1.105-0.809
		c-0.291-0.29-0.51-0.621-0.654-0.992c-0.145-0.371-0.217-0.812-0.217-1.324c0-0.535,0.104-1.009,0.314-1.422s0.51-0.758,0.9-1.038
		c0.389-0.279,0.855-0.491,1.398-0.636c0.543-0.146,1.146-0.218,1.812-0.218c0.557,0,1.051,0.058,1.479,0.172
		s0.787,0.27,1.078,0.464c0.289,0.195,0.508,0.424,0.652,0.688c0.146,0.264,0.219,0.541,0.219,0.831
		c0,0.428-0.146,0.771-0.441,1.026c-0.295,0.256-0.713,0.384-1.256,0.384c0-0.788-0.162-1.399-0.486-1.835
		c-0.326-0.436-0.836-0.653-1.531-0.653c-0.398,0-0.738,0.046-1.021,0.138c-0.281,0.091-0.514,0.222-0.693,0.39
		c-0.18,0.168-0.311,0.367-0.395,0.596s-0.127,0.481-0.127,0.757c0,0.298,0.053,0.556,0.16,0.774s0.277,0.418,0.51,0.602
		c0.234,0.184,0.535,0.361,0.906,0.533s0.816,0.365,1.336,0.579c0.619,0.26,1.15,0.516,1.594,0.768s0.809,0.527,1.096,0.826
		c0.287,0.298,0.498,0.634,0.637,1.009c0.137,0.375,0.205,0.807,0.205,1.296c0,0.611-0.109,1.146-0.332,1.605
		c-0.221,0.459-0.535,0.843-0.939,1.152c-0.406,0.31-0.893,0.541-1.463,0.694C387.881,55.127,387.248,55.204,386.553,55.204z"/>
	<path d="M404.473,48.657c0,2.209-0.467,3.853-1.404,4.931c-0.936,1.078-2.307,1.617-4.109,1.617c-0.85,0-1.609-0.134-2.283-0.401
		c-0.672-0.268-1.244-0.673-1.713-1.215c-0.471-0.543-0.83-1.225-1.078-2.047s-0.373-1.783-0.373-2.884
		c0-2.194,0.465-3.826,1.393-4.896c0.93-1.07,2.303-1.605,4.123-1.605c0.848,0,1.609,0.132,2.281,0.396
		c0.674,0.264,1.244,0.665,1.715,1.204c0.471,0.539,0.828,1.215,1.078,2.03C404.35,46.599,404.473,47.556,404.473,48.657z
		 M395.783,48.657c0,0.872,0.057,1.64,0.172,2.305c0.113,0.665,0.299,1.221,0.555,1.668s0.59,0.785,0.998,1.015
		s0.908,0.344,1.496,0.344s1.086-0.114,1.49-0.344c0.406-0.229,0.734-0.567,0.986-1.015s0.434-1.003,0.545-1.668
		s0.166-1.433,0.166-2.305s-0.057-1.636-0.172-2.293c-0.115-0.658-0.297-1.206-0.551-1.646c-0.252-0.439-0.582-0.77-0.99-0.992
		c-0.41-0.222-0.908-0.333-1.498-0.333c-0.588,0-1.084,0.111-1.49,0.333c-0.404,0.222-0.732,0.552-0.986,0.992
		c-0.252,0.439-0.436,0.988-0.549,1.646C395.84,47.021,395.783,47.785,395.783,48.657z"/>
	<path d="M412.42,55.204c-0.779,0-1.498-0.121-2.156-0.361s-1.223-0.621-1.697-1.141c-0.475-0.52-0.842-1.187-1.105-2
		c-0.264-0.814-0.396-1.798-0.396-2.953c0-1.253,0.133-2.303,0.396-3.147s0.631-1.523,1.1-2.035
		c0.471-0.512,1.025-0.875,1.662-1.089c0.639-0.214,1.328-0.321,2.07-0.321c0.49,0,0.977,0.048,1.463,0.144
		c0.484,0.096,0.922,0.243,1.312,0.441c0.389,0.199,0.707,0.449,0.951,0.751c0.244,0.302,0.367,0.656,0.367,1.061
		c0,0.543-0.176,0.925-0.527,1.147s-0.875,0.333-1.57,0.333c0-0.367-0.031-0.715-0.092-1.043c-0.062-0.329-0.166-0.617-0.316-0.866
		c-0.148-0.249-0.352-0.443-0.607-0.585c-0.256-0.141-0.582-0.212-0.98-0.212c-0.451,0-0.857,0.084-1.221,0.252
		c-0.363,0.168-0.676,0.459-0.936,0.872s-0.457,0.967-0.596,1.663c-0.137,0.696-0.205,1.567-0.205,2.614
		c0,1.667,0.275,2.909,0.83,3.727s1.463,1.227,2.723,1.227c0.727,0,1.361-0.153,1.904-0.458s0.947-0.699,1.215-1.181
		c0.115,0.092,0.211,0.214,0.287,0.367s0.115,0.336,0.115,0.55c0,0.268-0.084,0.535-0.252,0.803c-0.17,0.268-0.42,0.508-0.752,0.722
		c-0.332,0.214-0.748,0.388-1.244,0.522C413.666,55.137,413.084,55.204,412.42,55.204z"/>
	<path d="M418.176,53.988c0.26,0,0.506-0.017,0.738-0.051c0.234-0.035,0.438-0.105,0.613-0.212c0.176-0.107,0.316-0.265,0.42-0.476
		s0.154-0.487,0.154-0.832v-7.441c0-0.344-0.051-0.621-0.154-0.831c-0.104-0.21-0.244-0.373-0.42-0.487s-0.379-0.191-0.613-0.229
		c-0.232-0.038-0.479-0.057-0.738-0.057h-0.07v-0.986h4.197v9.918c0,0.367,0.053,0.661,0.154,0.883
		c0.104,0.222,0.242,0.392,0.414,0.51s0.375,0.197,0.613,0.235c0.236,0.039,0.484,0.057,0.744,0.057h0.311v0.986h-6.674v-0.986
		H418.176z M419.77,38.578c0-0.275,0.033-0.504,0.104-0.688c0.068-0.184,0.164-0.333,0.285-0.447
		c0.123-0.115,0.264-0.195,0.426-0.241c0.16-0.046,0.336-0.069,0.527-0.069c0.182,0,0.355,0.023,0.516,0.069
		s0.299,0.126,0.418,0.241s0.215,0.264,0.287,0.447s0.109,0.413,0.109,0.688s-0.037,0.504-0.109,0.688s-0.168,0.333-0.287,0.447
		s-0.258,0.197-0.418,0.247s-0.334,0.074-0.516,0.074c-0.191,0-0.367-0.024-0.527-0.074c-0.162-0.05-0.303-0.132-0.426-0.247
		c-0.121-0.115-0.217-0.264-0.285-0.447C419.803,39.083,419.77,38.854,419.77,38.578z"/>
	<path d="M431.133,43.325c-0.451,0-0.816,0.063-1.096,0.189s-0.496,0.304-0.654,0.533c-0.156,0.229-0.262,0.501-0.314,0.814
		c-0.053,0.313-0.08,0.654-0.08,1.021c-0.65,0-1.145-0.11-1.484-0.333c-0.342-0.222-0.512-0.604-0.512-1.146
		c0-0.405,0.111-0.749,0.334-1.032c0.221-0.283,0.525-0.514,0.91-0.694c0.387-0.18,0.836-0.312,1.348-0.396s1.059-0.126,1.641-0.126
		c0.719,0,1.344,0.071,1.879,0.212s0.982,0.373,1.342,0.694c0.359,0.321,0.629,0.739,0.809,1.255s0.27,1.148,0.27,1.897v6.089
		c0,0.329,0.027,0.6,0.08,0.814c0.055,0.214,0.139,0.386,0.252,0.516c0.115,0.13,0.266,0.222,0.453,0.275
		c0.188,0.054,0.412,0.08,0.672,0.08h0.068v0.986h-3.176l-0.367-2.018h-0.195c-0.244,0.329-0.48,0.631-0.711,0.906
		c-0.229,0.275-0.48,0.512-0.756,0.711s-0.588,0.354-0.936,0.464s-0.766,0.167-1.256,0.167c-0.52,0-1.002-0.075-1.449-0.224
		c-0.447-0.149-0.834-0.378-1.158-0.688c-0.326-0.31-0.58-0.7-0.764-1.169c-0.182-0.47-0.273-1.026-0.273-1.668
		c0-1.246,0.441-2.171,1.33-2.775c0.887-0.604,2.227-0.933,4.023-0.986l1.949-0.069v-1.411c0-0.42-0.023-0.808-0.068-1.164
		c-0.047-0.355-0.145-0.661-0.299-0.917c-0.152-0.256-0.373-0.455-0.658-0.596C431.998,43.396,431.613,43.325,431.133,43.325z
		 M428.289,51.569c0,0.734,0.154,1.282,0.465,1.645c0.309,0.363,0.789,0.545,1.438,0.545c0.475,0,0.904-0.076,1.291-0.229
		c0.385-0.153,0.715-0.371,0.986-0.653s0.479-0.627,0.625-1.032c0.145-0.405,0.217-0.856,0.217-1.353v-1.903l-1.502,0.069
		c-0.664,0.031-1.221,0.113-1.668,0.247s-0.809,0.321-1.084,0.562c-0.275,0.241-0.473,0.537-0.59,0.889
		C428.348,50.706,428.289,51.11,428.289,51.569z"/>
	<path d="M444.285,53.966c0.281,0,0.541-0.016,0.779-0.046c0.236-0.031,0.477-0.069,0.723-0.115v1.032
		c-0.1,0.046-0.23,0.092-0.391,0.138s-0.334,0.086-0.521,0.121c-0.188,0.034-0.385,0.061-0.59,0.08
		c-0.207,0.019-0.402,0.029-0.586,0.029c-0.596,0-1.107-0.063-1.537-0.189c-0.428-0.126-0.779-0.331-1.055-0.613
		s-0.479-0.657-0.613-1.124c-0.133-0.466-0.199-1.036-0.199-1.708v-7.843h-1.789v-0.94c0.281,0,0.594-0.057,0.934-0.172
		s0.641-0.306,0.9-0.573c0.268-0.291,0.482-0.637,0.648-1.038c0.164-0.401,0.307-0.904,0.43-1.507h1.078v2.889h3.072v1.342h-3.072
		v7.912c0,0.802,0.162,1.391,0.486,1.766S443.742,53.966,444.285,53.966z"/>
	<path d="M447.174,53.988c0.26,0,0.506-0.017,0.738-0.051c0.234-0.035,0.438-0.105,0.613-0.212c0.176-0.107,0.316-0.265,0.42-0.476
		s0.154-0.487,0.154-0.832v-7.441c0-0.344-0.051-0.621-0.154-0.831c-0.104-0.21-0.244-0.373-0.42-0.487s-0.379-0.191-0.613-0.229
		c-0.232-0.038-0.479-0.057-0.738-0.057h-0.07v-0.986h4.197v9.918c0,0.367,0.053,0.661,0.154,0.883
		c0.104,0.222,0.242,0.392,0.414,0.51s0.375,0.197,0.613,0.235c0.236,0.039,0.484,0.057,0.744,0.057h0.311v0.986h-6.674v-0.986
		H447.174z M448.768,38.578c0-0.275,0.033-0.504,0.104-0.688c0.068-0.184,0.164-0.333,0.285-0.447
		c0.123-0.115,0.264-0.195,0.426-0.241c0.16-0.046,0.336-0.069,0.527-0.069c0.182,0,0.355,0.023,0.516,0.069
		s0.299,0.126,0.418,0.241s0.215,0.264,0.287,0.447s0.109,0.413,0.109,0.688s-0.037,0.504-0.109,0.688s-0.168,0.333-0.287,0.447
		s-0.258,0.197-0.418,0.247s-0.334,0.074-0.516,0.074c-0.191,0-0.367-0.024-0.527-0.074c-0.162-0.05-0.303-0.132-0.426-0.247
		c-0.121-0.115-0.217-0.264-0.285-0.447C448.801,39.083,448.768,38.854,448.768,38.578z"/>
	<path d="M466.092,48.657c0,2.209-0.467,3.853-1.404,4.931c-0.936,1.078-2.307,1.617-4.109,1.617c-0.85,0-1.609-0.134-2.283-0.401
		c-0.672-0.268-1.244-0.673-1.713-1.215c-0.471-0.543-0.83-1.225-1.078-2.047s-0.373-1.783-0.373-2.884
		c0-2.194,0.465-3.826,1.393-4.896c0.93-1.07,2.303-1.605,4.123-1.605c0.848,0,1.609,0.132,2.281,0.396
		c0.674,0.264,1.244,0.665,1.715,1.204c0.471,0.539,0.828,1.215,1.078,2.03C465.969,46.599,466.092,47.556,466.092,48.657z
		 M457.402,48.657c0,0.872,0.057,1.64,0.172,2.305c0.113,0.665,0.299,1.221,0.555,1.668s0.59,0.785,0.998,1.015
		s0.908,0.344,1.496,0.344s1.086-0.114,1.49-0.344c0.406-0.229,0.734-0.567,0.986-1.015s0.434-1.003,0.545-1.668
		s0.166-1.433,0.166-2.305s-0.057-1.636-0.172-2.293c-0.115-0.658-0.297-1.206-0.551-1.646c-0.252-0.439-0.582-0.77-0.99-0.992
		c-0.41-0.222-0.908-0.333-1.498-0.333c-0.588,0-1.084,0.111-1.49,0.333c-0.404,0.222-0.732,0.552-0.986,0.992
		c-0.252,0.439-0.436,0.988-0.549,1.646C457.459,47.021,457.402,47.785,457.402,48.657z"/>
	<path d="M474.359,53.988v0.986h-6.318v-0.986h0.195c0.268,0,0.518-0.019,0.752-0.057c0.232-0.038,0.436-0.116,0.607-0.235
		s0.309-0.289,0.412-0.51s0.154-0.516,0.154-0.883v-7.327c0-0.344-0.051-0.621-0.154-0.831c-0.104-0.21-0.242-0.373-0.418-0.487
		s-0.381-0.191-0.613-0.229c-0.234-0.038-0.48-0.057-0.74-0.057h-0.068v-0.986h3.795l0.311,1.903h0.113
		c0.246-0.436,0.504-0.793,0.775-1.072c0.27-0.279,0.557-0.497,0.859-0.654c0.301-0.157,0.623-0.264,0.963-0.321
		c0.34-0.058,0.697-0.086,1.072-0.086c0.619,0,1.172,0.09,1.656,0.27c0.486,0.18,0.898,0.455,1.238,0.826
		c0.34,0.371,0.6,0.847,0.779,1.428s0.27,1.272,0.27,2.075v5.55c0,0.367,0.045,0.661,0.133,0.883s0.213,0.392,0.373,0.51
		s0.352,0.197,0.572,0.235c0.223,0.039,0.463,0.057,0.723,0.057h0.08v0.986h-4.094v-8.106c0-0.512-0.045-0.967-0.137-1.365
		c-0.092-0.397-0.238-0.733-0.441-1.009s-0.469-0.483-0.797-0.625c-0.328-0.141-0.73-0.212-1.203-0.212
		c-0.535,0-0.984,0.103-1.348,0.31c-0.363,0.206-0.656,0.485-0.877,0.837c-0.223,0.352-0.381,0.757-0.477,1.215
		s-0.143,0.94-0.143,1.445v4.953c0,0.344,0.051,0.621,0.154,0.832s0.242,0.369,0.418,0.476c0.176,0.107,0.381,0.178,0.613,0.212
		c0.234,0.034,0.48,0.051,0.74,0.051H474.359z"/>
	<path d="M496.523,53.988v0.986h-7.258v-0.986h0.309c0.268,0,0.518-0.019,0.752-0.057c0.232-0.038,0.436-0.116,0.607-0.235
		s0.309-0.289,0.412-0.51s0.154-0.516,0.154-0.883v-8.806h-2.143v-1.112h2.143v-1.169c0-0.703,0.096-1.322,0.287-1.857
		s0.467-0.986,0.826-1.353c0.359-0.367,0.795-0.644,1.307-0.832c0.512-0.187,1.09-0.281,1.732-0.281c0.611,0,1.127,0.04,1.547,0.121
		c0.42,0.08,0.76,0.193,1.016,0.338c0.256,0.146,0.441,0.317,0.555,0.516c0.115,0.199,0.172,0.42,0.172,0.665
		c0,0.214-0.047,0.403-0.143,0.567c-0.096,0.165-0.229,0.302-0.4,0.413s-0.375,0.195-0.609,0.252
		c-0.232,0.058-0.49,0.086-0.773,0.086c0-0.237-0.025-0.468-0.074-0.693s-0.133-0.426-0.252-0.602s-0.277-0.317-0.477-0.424
		c-0.199-0.107-0.447-0.161-0.744-0.161c-0.338,0-0.617,0.065-0.844,0.195c-0.225,0.13-0.406,0.323-0.545,0.579
		c-0.137,0.256-0.234,0.572-0.291,0.946c-0.059,0.375-0.086,0.81-0.086,1.307v1.387h3.312v1.112h-3.312v8.806
		c0,0.367,0.051,0.661,0.154,0.883s0.24,0.392,0.412,0.51s0.377,0.197,0.613,0.235c0.238,0.039,0.486,0.057,0.746,0.057H496.523z"/>
	<path d="M509.559,48.657c0,2.209-0.467,3.853-1.404,4.931c-0.936,1.078-2.307,1.617-4.109,1.617c-0.85,0-1.609-0.134-2.283-0.401
		c-0.672-0.268-1.244-0.673-1.713-1.215c-0.471-0.543-0.83-1.225-1.078-2.047s-0.373-1.783-0.373-2.884
		c0-2.194,0.465-3.826,1.393-4.896c0.93-1.07,2.303-1.605,4.123-1.605c0.848,0,1.609,0.132,2.281,0.396
		c0.674,0.264,1.244,0.665,1.715,1.204c0.471,0.539,0.828,1.215,1.078,2.03C509.436,46.599,509.559,47.556,509.559,48.657z
		 M500.869,48.657c0,0.872,0.057,1.64,0.172,2.305c0.113,0.665,0.299,1.221,0.555,1.668s0.59,0.785,0.998,1.015
		s0.908,0.344,1.496,0.344s1.086-0.114,1.49-0.344c0.406-0.229,0.734-0.567,0.986-1.015s0.434-1.003,0.545-1.668
		s0.166-1.433,0.166-2.305s-0.057-1.636-0.172-2.293c-0.115-0.658-0.297-1.206-0.551-1.646c-0.252-0.439-0.582-0.77-0.99-0.992
		c-0.41-0.222-0.908-0.333-1.498-0.333c-0.588,0-1.084,0.111-1.49,0.333c-0.404,0.222-0.732,0.552-0.986,0.992
		c-0.252,0.439-0.436,0.988-0.549,1.646C500.926,47.021,500.869,47.785,500.869,48.657z"/>
	<path d="M518.412,54.975h-6.777v-0.986h0.068c0.268,0,0.518-0.019,0.752-0.057c0.232-0.038,0.436-0.116,0.607-0.235
		s0.309-0.289,0.412-0.51s0.154-0.516,0.154-0.883v-7.327c0-0.344-0.051-0.621-0.154-0.831c-0.104-0.21-0.242-0.373-0.418-0.487
		s-0.381-0.191-0.613-0.229c-0.234-0.038-0.48-0.057-0.74-0.057h-0.068v-0.986h3.611l0.447,2.328h0.115
		c0.152-0.352,0.309-0.682,0.471-0.992c0.16-0.31,0.355-0.581,0.59-0.814c0.232-0.233,0.521-0.417,0.865-0.551
		c0.344-0.133,0.775-0.201,1.297-0.201c0.855,0,1.492,0.149,1.908,0.447c0.416,0.298,0.625,0.719,0.625,1.261
		c0,0.245-0.041,0.47-0.121,0.677s-0.207,0.384-0.383,0.533s-0.402,0.264-0.678,0.344c-0.275,0.081-0.611,0.121-1.008,0.121
		c0-0.65-0.092-1.118-0.275-1.405s-0.506-0.43-0.963-0.43c-0.291,0-0.551,0.082-0.781,0.247c-0.229,0.164-0.43,0.382-0.602,0.653
		c-0.172,0.271-0.316,0.583-0.436,0.935s-0.215,0.713-0.287,1.083s-0.123,0.74-0.154,1.106s-0.045,0.699-0.045,0.998v3.692
		c0,0.344,0.051,0.621,0.154,0.832s0.242,0.369,0.418,0.476c0.176,0.107,0.381,0.178,0.613,0.212c0.234,0.034,0.48,0.051,0.74,0.051
		h0.654V54.975z"/>
	<path d="M315.383,68.162c0.803,0,1.5,0.067,2.094,0.201c0.592,0.134,1.084,0.319,1.479,0.556c0.393,0.237,0.688,0.516,0.883,0.837
		c0.195,0.321,0.293,0.669,0.293,1.043c0,0.252-0.053,0.48-0.156,0.683s-0.246,0.375-0.43,0.516
		c-0.184,0.142-0.398,0.25-0.648,0.327c-0.248,0.076-0.518,0.114-0.807,0.114c0-0.367-0.049-0.729-0.145-1.089
		s-0.252-0.683-0.469-0.969c-0.219-0.287-0.502-0.52-0.85-0.699s-0.777-0.27-1.289-0.27c-0.887,0-1.641,0.163-2.26,0.487
		c-0.619,0.325-1.123,0.799-1.514,1.422c-0.389,0.623-0.672,1.391-0.848,2.305s-0.264,1.959-0.264,3.136
		c0,1.047,0.092,2.006,0.275,2.879c0.184,0.871,0.473,1.617,0.871,2.24c0.396,0.623,0.904,1.107,1.52,1.451s1.354,0.516,2.219,0.516
		c0.572,0,1.078-0.055,1.52-0.166c0.439-0.111,0.826-0.258,1.162-0.441c0.338-0.184,0.633-0.396,0.889-0.637s0.484-0.49,0.684-0.75
		c0.129,0.084,0.236,0.197,0.32,0.344c0.084,0.145,0.127,0.336,0.127,0.572c0,0.299-0.102,0.602-0.305,0.912s-0.51,0.59-0.924,0.842
		c-0.412,0.254-0.936,0.461-1.57,0.625c-0.635,0.166-1.387,0.248-2.258,0.248c-1.17,0-2.199-0.207-3.086-0.619
		c-0.887-0.414-1.629-0.998-2.229-1.756c-0.602-0.756-1.055-1.666-1.359-2.729c-0.307-1.062-0.459-2.238-0.459-3.531
		c0-1.269,0.16-2.431,0.482-3.485c0.32-1.055,0.797-1.961,1.428-2.718c0.629-0.757,1.416-1.345,2.355-1.766
		S314.145,68.162,315.383,68.162z"/>
	<path d="M333.178,78.85c0,2.209-0.467,3.852-1.404,4.93c-0.936,1.078-2.307,1.617-4.109,1.617c-0.85,0-1.609-0.135-2.283-0.402
		c-0.672-0.268-1.244-0.672-1.713-1.215c-0.471-0.543-0.83-1.225-1.078-2.047s-0.373-1.783-0.373-2.883
		c0-2.195,0.465-3.827,1.393-4.897c0.93-1.07,2.303-1.605,4.123-1.605c0.848,0,1.609,0.132,2.281,0.396
		c0.674,0.264,1.244,0.665,1.715,1.204c0.471,0.539,0.828,1.215,1.078,2.03C333.055,76.791,333.178,77.748,333.178,78.85z
		 M324.488,78.85c0,0.871,0.057,1.639,0.172,2.305c0.113,0.664,0.299,1.221,0.555,1.668s0.59,0.785,0.998,1.014
		c0.408,0.23,0.908,0.344,1.496,0.344s1.086-0.113,1.49-0.344c0.406-0.229,0.734-0.566,0.986-1.014s0.434-1.004,0.545-1.668
		c0.111-0.666,0.166-1.434,0.166-2.305c0-0.873-0.057-1.637-0.172-2.294c-0.115-0.658-0.297-1.206-0.551-1.646
		c-0.252-0.439-0.582-0.77-0.99-0.992c-0.41-0.222-0.908-0.333-1.498-0.333c-0.588,0-1.084,0.111-1.49,0.333
		c-0.404,0.222-0.732,0.552-0.986,0.992c-0.252,0.439-0.436,0.988-0.549,1.646C324.545,77.213,324.488,77.977,324.488,78.85z"/>
	<path d="M341.445,84.18v0.986h-6.318V84.18h0.311c0.268,0,0.512-0.018,0.734-0.057c0.221-0.039,0.412-0.117,0.572-0.234
		c0.16-0.119,0.285-0.289,0.373-0.512c0.088-0.221,0.131-0.516,0.131-0.883v-7.326c0-0.344-0.045-0.621-0.137-0.831
		c-0.092-0.21-0.219-0.373-0.379-0.487s-0.352-0.191-0.572-0.229c-0.223-0.038-0.463-0.057-0.723-0.057h-0.068v-0.986h3.68
		l0.311,1.903h0.113c0.238-0.436,0.486-0.793,0.746-1.072c0.26-0.279,0.537-0.497,0.832-0.654c0.293-0.157,0.604-0.264,0.928-0.321
		c0.324-0.058,0.672-0.086,1.037-0.086c0.383,0,0.746,0.039,1.09,0.115c0.344,0.077,0.664,0.199,0.957,0.367
		c0.295,0.168,0.559,0.388,0.791,0.659c0.234,0.271,0.424,0.602,0.568,0.992h0.195c0.236-0.436,0.492-0.793,0.768-1.072
		c0.275-0.279,0.568-0.497,0.877-0.654c0.311-0.157,0.635-0.264,0.975-0.321c0.34-0.058,0.693-0.086,1.061-0.086
		c0.598,0,1.131,0.09,1.605,0.27c0.475,0.18,0.875,0.455,1.205,0.826c0.328,0.371,0.58,0.847,0.756,1.428s0.264,1.272,0.264,2.075
		v5.549c0,0.367,0.047,0.662,0.137,0.883c0.092,0.223,0.219,0.393,0.379,0.512c0.16,0.117,0.352,0.195,0.574,0.234
		c0.221,0.039,0.461,0.057,0.723,0.057h0.068v0.986h-4.082v-8.105c0-0.513-0.045-0.967-0.133-1.365
		c-0.088-0.397-0.229-0.733-0.424-1.009s-0.449-0.483-0.762-0.625c-0.314-0.141-0.695-0.212-1.146-0.212
		c-0.49,0-0.9,0.094-1.232,0.281c-0.334,0.188-0.604,0.441-0.809,0.763c-0.207,0.321-0.354,0.692-0.441,1.112
		c-0.088,0.421-0.133,0.868-0.133,1.341v5.148c0,0.367,0.047,0.662,0.139,0.883c0.092,0.223,0.217,0.393,0.377,0.512
		c0.162,0.117,0.352,0.195,0.574,0.234c0.221,0.039,0.463,0.057,0.723,0.057h0.068v0.986h-4.082v-8.105
		c0-0.513-0.045-0.967-0.133-1.365c-0.088-0.397-0.229-0.733-0.424-1.009s-0.449-0.483-0.762-0.625
		c-0.314-0.141-0.695-0.212-1.146-0.212c-0.512,0-0.943,0.103-1.291,0.31c-0.348,0.206-0.629,0.485-0.842,0.837
		c-0.215,0.352-0.367,0.757-0.459,1.215s-0.137,0.941-0.137,1.445v4.953c0,0.344,0.051,0.621,0.154,0.832
		c0.104,0.209,0.242,0.369,0.418,0.475c0.176,0.107,0.381,0.178,0.613,0.213c0.234,0.035,0.48,0.051,0.74,0.051H341.445z"/>
	<path d="M369.789,78.85c0,1.131-0.105,2.109-0.314,2.934c-0.211,0.826-0.518,1.506-0.924,2.041
		c-0.404,0.535-0.906,0.932-1.502,1.188s-1.281,0.385-2.053,0.385c-0.451,0-0.859-0.051-1.227-0.15
		c-0.367-0.098-0.697-0.24-0.992-0.424c-0.293-0.184-0.555-0.4-0.779-0.652c-0.225-0.254-0.422-0.531-0.59-0.838h-0.092
		c0.016,0.404,0.029,0.783,0.045,1.135c0.008,0.146,0.014,0.297,0.018,0.453s0.008,0.305,0.012,0.441s0.008,0.262,0.012,0.373
		s0.006,0.197,0.006,0.258v2.248c0,0.344,0.051,0.621,0.154,0.83c0.104,0.211,0.242,0.371,0.418,0.482
		c0.176,0.109,0.381,0.184,0.613,0.217c0.234,0.035,0.48,0.053,0.74,0.053h0.068v0.986h-6.318v-0.986h0.184
		c0.268,0,0.518-0.02,0.752-0.059c0.232-0.037,0.436-0.115,0.607-0.234s0.311-0.291,0.412-0.516
		c0.104-0.227,0.156-0.521,0.156-0.889V75.168c0-0.344-0.053-0.621-0.156-0.831c-0.102-0.21-0.242-0.373-0.418-0.487
		s-0.381-0.191-0.613-0.229c-0.232-0.038-0.48-0.057-0.74-0.057h-0.297v-0.986h4.104l0.242,2.121h0.092
		c0.176-0.359,0.373-0.684,0.596-0.975c0.221-0.29,0.479-0.537,0.768-0.739c0.291-0.203,0.619-0.359,0.986-0.47
		s0.779-0.167,1.238-0.167c0.771,0,1.457,0.128,2.053,0.384c0.596,0.256,1.098,0.65,1.502,1.181
		c0.406,0.531,0.713,1.206,0.924,2.024C369.684,76.754,369.789,77.725,369.789,78.85z M364.596,73.85
		c-0.611,0-1.123,0.101-1.531,0.304s-0.736,0.51-0.98,0.923c-0.244,0.413-0.418,0.933-0.521,1.56
		c-0.104,0.626-0.154,1.364-0.154,2.214c0,0.816,0.051,1.539,0.154,2.166s0.279,1.154,0.527,1.582s0.576,0.752,0.986,0.969
		c0.408,0.219,0.922,0.328,1.541,0.328c0.521,0,0.963-0.109,1.326-0.328c0.361-0.217,0.66-0.541,0.893-0.969
		c0.234-0.428,0.404-0.957,0.512-1.588c0.105-0.631,0.16-1.359,0.16-2.184c0-0.834-0.055-1.562-0.16-2.185
		c-0.107-0.623-0.277-1.141-0.512-1.554c-0.232-0.413-0.535-0.723-0.904-0.929C365.561,73.953,365.115,73.85,364.596,73.85z"/>
	<path d="M383.445,82.609c0,0.344,0.053,0.621,0.154,0.832c0.104,0.209,0.244,0.369,0.42,0.475c0.176,0.107,0.379,0.178,0.613,0.213
		c0.232,0.035,0.479,0.051,0.738,0.051h0.07v0.986h-3.727l-0.311-1.902h-0.115c-0.236,0.443-0.498,0.803-0.785,1.078
		c-0.285,0.273-0.59,0.49-0.91,0.646c-0.322,0.158-0.658,0.264-1.01,0.322c-0.352,0.057-0.719,0.086-1.102,0.086
		c-0.619,0-1.168-0.088-1.65-0.264c-0.48-0.176-0.887-0.451-1.215-0.826c-0.33-0.375-0.58-0.852-0.752-1.434
		c-0.172-0.58-0.258-1.273-0.258-2.074v-5.631c0-0.344-0.051-0.621-0.154-0.831c-0.104-0.21-0.242-0.373-0.418-0.487
		s-0.381-0.191-0.613-0.229c-0.234-0.038-0.48-0.057-0.74-0.057h-0.068v-0.986h4.207v8.107c0,0.512,0.041,0.967,0.121,1.363
		c0.08,0.398,0.213,0.734,0.4,1.01s0.439,0.484,0.758,0.625c0.316,0.141,0.713,0.213,1.186,0.213c0.52,0,0.965-0.092,1.336-0.275
		s0.678-0.441,0.918-0.775c0.24-0.332,0.418-0.73,0.533-1.197s0.172-0.982,0.172-1.549V75.26c0-0.367-0.051-0.663-0.154-0.889
		c-0.104-0.225-0.242-0.397-0.414-0.516c-0.172-0.118-0.373-0.196-0.607-0.235c-0.232-0.038-0.482-0.057-0.75-0.057h-0.068v-0.986
		h4.195V82.609z"/>
	<path d="M392.207,84.158c0.281,0,0.541-0.016,0.779-0.047c0.236-0.029,0.477-0.068,0.723-0.115v1.033
		c-0.1,0.045-0.23,0.092-0.391,0.137c-0.16,0.047-0.334,0.086-0.521,0.121s-0.385,0.061-0.59,0.08
		c-0.207,0.02-0.402,0.029-0.586,0.029c-0.596,0-1.107-0.064-1.537-0.189c-0.428-0.127-0.779-0.33-1.055-0.613
		s-0.479-0.658-0.613-1.125c-0.133-0.465-0.199-1.035-0.199-1.707v-7.843h-1.789v-0.94c0.281,0,0.594-0.057,0.934-0.172
		s0.641-0.306,0.9-0.573c0.268-0.291,0.482-0.637,0.648-1.038c0.164-0.401,0.307-0.904,0.43-1.507h1.078v2.889h3.072v1.342h-3.072
		v7.912c0,0.803,0.162,1.391,0.486,1.766S391.664,84.158,392.207,84.158z"/>
	<path d="M400.988,85.396c-0.848,0-1.611-0.145-2.287-0.43c-0.676-0.287-1.248-0.707-1.715-1.256
		c-0.465-0.551-0.822-1.225-1.072-2.023c-0.248-0.799-0.371-1.707-0.371-2.725c0-2.193,0.451-3.844,1.352-4.953
		c0.902-1.108,2.188-1.663,3.854-1.663c0.756,0,1.438,0.119,2.041,0.355c0.604,0.237,1.115,0.591,1.537,1.061
		c0.42,0.47,0.742,1.055,0.969,1.754c0.225,0.7,0.338,1.512,0.338,2.438v1.076h-7.82c0.016,0.857,0.102,1.594,0.258,2.209
		s0.383,1.121,0.676,1.518c0.295,0.398,0.656,0.691,1.084,0.879c0.428,0.186,0.922,0.279,1.48,0.279
		c0.404,0,0.781-0.045,1.129-0.137s0.662-0.215,0.945-0.367s0.533-0.326,0.752-0.521c0.217-0.195,0.395-0.4,0.533-0.613
		c0.105,0.045,0.207,0.141,0.303,0.287c0.096,0.145,0.145,0.316,0.145,0.516c0,0.236-0.084,0.49-0.254,0.762
		c-0.168,0.271-0.424,0.521-0.768,0.752c-0.344,0.229-0.773,0.42-1.289,0.572S401.684,85.396,400.988,85.396z M400.701,73.609
		c-0.871,0-1.541,0.354-2.012,1.061s-0.746,1.741-0.83,3.102h5.4c0-0.619-0.047-1.186-0.139-1.698
		c-0.092-0.512-0.236-0.952-0.436-1.318c-0.199-0.367-0.461-0.65-0.785-0.849S401.176,73.609,400.701,73.609z"/>
	<path d="M414.369,85.166h-6.777V84.18h0.07c0.268,0,0.518-0.018,0.75-0.057c0.234-0.039,0.436-0.117,0.607-0.234
		c0.172-0.119,0.311-0.289,0.414-0.512c0.104-0.221,0.154-0.516,0.154-0.883v-7.326c0-0.344-0.051-0.621-0.154-0.831
		c-0.104-0.21-0.244-0.373-0.42-0.487s-0.379-0.191-0.613-0.229c-0.232-0.038-0.479-0.057-0.738-0.057h-0.07v-0.986h3.613
		l0.447,2.328h0.113c0.154-0.352,0.311-0.682,0.471-0.992s0.357-0.581,0.59-0.814c0.234-0.233,0.523-0.417,0.867-0.551
		c0.344-0.133,0.775-0.201,1.295-0.201c0.855,0,1.492,0.149,1.908,0.447c0.418,0.298,0.625,0.719,0.625,1.261
		c0,0.245-0.039,0.47-0.119,0.677s-0.209,0.384-0.385,0.533s-0.4,0.264-0.676,0.344c-0.275,0.081-0.611,0.121-1.01,0.121
		c0-0.65-0.092-1.118-0.275-1.405s-0.504-0.43-0.963-0.43c-0.291,0-0.551,0.082-0.779,0.247c-0.23,0.164-0.43,0.382-0.602,0.653
		c-0.172,0.271-0.318,0.583-0.436,0.935c-0.119,0.352-0.215,0.713-0.287,1.083c-0.072,0.37-0.125,0.739-0.154,1.106
		c-0.031,0.367-0.047,0.699-0.047,0.998v3.691c0,0.344,0.053,0.621,0.154,0.832c0.104,0.209,0.244,0.369,0.42,0.475
		c0.176,0.107,0.379,0.178,0.613,0.213c0.232,0.035,0.479,0.051,0.738,0.051h0.654V85.166z"/>
	<path d="M422.809,85.396c-0.59,0-1.123-0.053-1.6-0.156c-0.479-0.102-0.885-0.26-1.223-0.469c-0.336-0.211-0.596-0.471-0.779-0.779
		c-0.184-0.311-0.275-0.672-0.275-1.084c0-0.314,0.053-0.576,0.156-0.785c0.102-0.211,0.229-0.377,0.377-0.5
		c0.15-0.121,0.311-0.207,0.482-0.258c0.172-0.049,0.326-0.074,0.465-0.074c0,0.412,0.041,0.799,0.125,1.158
		s0.227,0.674,0.424,0.945c0.199,0.271,0.461,0.486,0.787,0.643c0.324,0.156,0.723,0.234,1.197,0.234
		c0.42,0,0.791-0.051,1.113-0.154c0.32-0.104,0.59-0.248,0.807-0.436c0.219-0.188,0.385-0.412,0.5-0.676
		c0.113-0.264,0.172-0.553,0.172-0.867c0-0.289-0.045-0.539-0.133-0.75s-0.24-0.408-0.457-0.59
		c-0.219-0.184-0.516-0.371-0.889-0.562c-0.375-0.191-0.846-0.408-1.412-0.654c-0.604-0.268-1.129-0.525-1.576-0.773
		s-0.816-0.518-1.105-0.809c-0.291-0.291-0.51-0.621-0.654-0.992c-0.145-0.37-0.217-0.812-0.217-1.324
		c0-0.535,0.104-1.009,0.314-1.422s0.51-0.758,0.9-1.038c0.389-0.279,0.855-0.491,1.398-0.636c0.543-0.146,1.146-0.218,1.812-0.218
		c0.557,0,1.051,0.058,1.479,0.172s0.787,0.27,1.078,0.464c0.289,0.195,0.508,0.424,0.652,0.688
		c0.146,0.264,0.219,0.541,0.219,0.831c0,0.428-0.146,0.771-0.441,1.026c-0.295,0.256-0.713,0.384-1.256,0.384
		c0-0.788-0.162-1.399-0.486-1.835c-0.326-0.436-0.836-0.653-1.531-0.653c-0.398,0-0.738,0.046-1.021,0.138
		c-0.281,0.091-0.514,0.222-0.693,0.39c-0.18,0.168-0.311,0.367-0.395,0.596s-0.127,0.481-0.127,0.757
		c0,0.298,0.053,0.556,0.16,0.774s0.277,0.418,0.51,0.602c0.234,0.184,0.535,0.362,0.906,0.534s0.816,0.365,1.336,0.578
		c0.619,0.26,1.15,0.516,1.594,0.77c0.443,0.252,0.809,0.527,1.096,0.824c0.287,0.299,0.498,0.635,0.637,1.01
		c0.137,0.375,0.205,0.807,0.205,1.295c0,0.611-0.109,1.146-0.332,1.605c-0.221,0.459-0.535,0.844-0.939,1.152
		c-0.406,0.311-0.893,0.541-1.463,0.693C424.137,85.318,423.504,85.396,422.809,85.396z"/>
	<path d="M440.867,73.517c-0.451,0-0.816,0.063-1.096,0.189s-0.496,0.304-0.654,0.533c-0.156,0.229-0.262,0.501-0.314,0.814
		c-0.053,0.313-0.08,0.654-0.08,1.021c-0.65,0-1.145-0.11-1.484-0.333c-0.342-0.222-0.512-0.604-0.512-1.146
		c0-0.405,0.111-0.749,0.334-1.032c0.221-0.283,0.525-0.514,0.91-0.694c0.387-0.18,0.836-0.312,1.348-0.396s1.059-0.126,1.641-0.126
		c0.719,0,1.344,0.071,1.879,0.212s0.982,0.373,1.342,0.694c0.359,0.321,0.629,0.739,0.809,1.255s0.27,1.148,0.27,1.897v6.088
		c0,0.33,0.027,0.602,0.08,0.814c0.055,0.215,0.139,0.387,0.252,0.516c0.115,0.131,0.266,0.223,0.453,0.275
		c0.188,0.055,0.412,0.08,0.672,0.08h0.068v0.986h-3.176l-0.367-2.018h-0.195c-0.244,0.328-0.48,0.631-0.711,0.906
		c-0.229,0.275-0.48,0.512-0.756,0.711s-0.588,0.354-0.936,0.465c-0.348,0.109-0.766,0.166-1.256,0.166
		c-0.52,0-1.002-0.074-1.449-0.225c-0.447-0.148-0.834-0.379-1.158-0.688c-0.326-0.311-0.58-0.699-0.764-1.17
		c-0.182-0.471-0.273-1.025-0.273-1.668c0-1.246,0.441-2.172,1.33-2.775c0.887-0.604,2.227-0.932,4.023-0.986l1.949-0.068v-1.41
		c0-0.42-0.023-0.808-0.068-1.164c-0.047-0.355-0.145-0.661-0.299-0.917c-0.152-0.256-0.373-0.455-0.658-0.596
		C441.732,73.588,441.348,73.517,440.867,73.517z M438.023,81.762c0,0.732,0.154,1.281,0.465,1.645
		c0.309,0.363,0.789,0.545,1.438,0.545c0.475,0,0.904-0.076,1.291-0.229c0.385-0.154,0.715-0.371,0.986-0.654
		s0.479-0.627,0.625-1.031c0.145-0.406,0.217-0.857,0.217-1.354v-1.904l-1.502,0.07c-0.664,0.029-1.221,0.111-1.668,0.246
		c-0.447,0.133-0.809,0.32-1.084,0.561c-0.275,0.242-0.473,0.537-0.59,0.889C438.082,80.896,438.023,81.303,438.023,81.762z"/>
	<path d="M454.764,84.18v0.986h-6.318V84.18h0.195c0.268,0,0.518-0.018,0.752-0.057c0.232-0.039,0.436-0.117,0.607-0.234
		c0.172-0.119,0.309-0.289,0.412-0.512c0.104-0.221,0.154-0.516,0.154-0.883v-7.326c0-0.344-0.051-0.621-0.154-0.831
		c-0.104-0.21-0.242-0.373-0.418-0.487s-0.381-0.191-0.613-0.229c-0.234-0.038-0.48-0.057-0.74-0.057h-0.068v-0.986h3.795
		l0.311,1.903h0.113c0.246-0.436,0.504-0.793,0.775-1.072c0.27-0.279,0.557-0.497,0.859-0.654c0.301-0.157,0.623-0.264,0.963-0.321
		c0.34-0.058,0.697-0.086,1.072-0.086c0.619,0,1.172,0.09,1.656,0.27c0.486,0.18,0.898,0.455,1.238,0.826
		c0.34,0.371,0.6,0.847,0.779,1.428s0.27,1.272,0.27,2.075v5.549c0,0.367,0.045,0.662,0.133,0.883
		c0.088,0.223,0.213,0.393,0.373,0.512c0.16,0.117,0.352,0.195,0.572,0.234c0.223,0.039,0.463,0.057,0.723,0.057h0.08v0.986h-4.094
		v-8.105c0-0.513-0.045-0.967-0.137-1.365c-0.092-0.397-0.238-0.733-0.441-1.009s-0.469-0.483-0.797-0.625
		c-0.328-0.141-0.73-0.212-1.203-0.212c-0.535,0-0.984,0.103-1.348,0.31c-0.363,0.206-0.656,0.485-0.877,0.837
		c-0.223,0.352-0.381,0.757-0.477,1.215s-0.143,0.941-0.143,1.445v4.953c0,0.344,0.051,0.621,0.154,0.832
		c0.104,0.209,0.242,0.369,0.418,0.475c0.176,0.107,0.381,0.178,0.613,0.213c0.234,0.035,0.48,0.051,0.74,0.051H454.764z"/>
	<path d="M474.818,82.586c0,0.344,0.051,0.621,0.154,0.832s0.242,0.373,0.418,0.486c0.176,0.115,0.381,0.189,0.613,0.225
		c0.234,0.035,0.48,0.051,0.74,0.051h0.195v0.986h-3.979l-0.252-2.109h-0.092c-0.178,0.359-0.377,0.682-0.604,0.969
		c-0.225,0.287-0.482,0.531-0.773,0.734s-0.619,0.359-0.986,0.471c-0.367,0.109-0.779,0.166-1.238,0.166
		c-0.771,0-1.455-0.129-2.053-0.385c-0.596-0.256-1.096-0.65-1.502-1.182c-0.404-0.531-0.711-1.205-0.916-2.023
		c-0.207-0.818-0.311-1.789-0.311-2.912c0-1.131,0.104-2.11,0.311-2.936c0.205-0.825,0.512-1.505,0.916-2.041
		c0.406-0.535,0.906-0.931,1.502-1.187c0.598-0.256,1.281-0.384,2.053-0.384c0.451,0,0.859,0.05,1.227,0.149
		c0.367,0.099,0.697,0.241,0.992,0.424c0.295,0.183,0.557,0.401,0.785,0.653c0.23,0.252,0.428,0.531,0.598,0.837h0.137
		c-0.023-0.382-0.045-0.741-0.068-1.078c-0.016-0.291-0.031-0.579-0.047-0.866s-0.021-0.499-0.021-0.636v-1.926
		c0-0.344-0.053-0.621-0.156-0.832c-0.104-0.21-0.242-0.373-0.418-0.487s-0.381-0.189-0.613-0.224
		c-0.232-0.034-0.48-0.051-0.74-0.051h-0.193v-0.986h4.322V82.586z M469.418,83.895c0.611,0,1.121-0.102,1.529-0.305
		c0.41-0.203,0.738-0.51,0.986-0.924c0.248-0.412,0.424-0.932,0.527-1.559s0.156-1.365,0.156-2.213c0-0.818-0.053-1.541-0.156-2.167
		c-0.104-0.627-0.279-1.152-0.527-1.577s-0.578-0.747-0.992-0.969c-0.412-0.222-0.928-0.333-1.547-0.333
		c-0.512,0-0.951,0.111-1.318,0.333s-0.668,0.546-0.9,0.975s-0.404,0.958-0.51,1.588c-0.107,0.63-0.16,1.355-0.16,2.173
		c0,1.666,0.225,2.912,0.676,3.738C467.633,83.48,468.377,83.895,469.418,83.895z"/>
	<path d="M489.678,84.158c0.283,0,0.543-0.016,0.779-0.047c0.236-0.029,0.479-0.068,0.723-0.115v1.033
		c-0.1,0.045-0.229,0.092-0.391,0.137c-0.16,0.047-0.334,0.086-0.521,0.121s-0.383,0.061-0.59,0.08s-0.4,0.029-0.584,0.029
		c-0.598,0-1.109-0.064-1.537-0.189c-0.428-0.127-0.779-0.33-1.055-0.613s-0.48-0.658-0.613-1.125
		c-0.135-0.465-0.201-1.035-0.201-1.707v-7.843h-1.789v-0.94c0.283,0,0.594-0.057,0.936-0.172c0.34-0.115,0.639-0.306,0.9-0.573
		c0.266-0.291,0.482-0.637,0.646-1.038c0.164-0.401,0.309-0.904,0.43-1.507h1.078v2.889h3.074v1.342h-3.074v7.912
		c0,0.803,0.162,1.391,0.488,1.766C488.701,83.971,489.135,84.158,489.678,84.158z"/>
	<path d="M498.461,84.18v0.986h-6.318V84.18h0.184c0.268,0,0.518-0.018,0.75-0.057c0.234-0.039,0.438-0.117,0.609-0.234
		c0.172-0.119,0.309-0.289,0.412-0.512c0.104-0.221,0.154-0.516,0.154-0.883V69.905c0-0.344-0.051-0.621-0.154-0.832
		c-0.104-0.21-0.242-0.373-0.418-0.487s-0.381-0.189-0.613-0.224c-0.234-0.034-0.48-0.051-0.74-0.051h-0.184v-0.986h4.322v5.16
		c0,0.214-0.004,0.438-0.012,0.671c-0.008,0.233-0.018,0.449-0.033,0.648c-0.016,0.229-0.031,0.455-0.047,0.676h0.115
		c0.703-1.422,1.854-2.133,3.451-2.133c0.664,0,1.256,0.09,1.771,0.27c0.516,0.18,0.949,0.455,1.301,0.826
		c0.352,0.371,0.619,0.847,0.803,1.428s0.275,1.272,0.275,2.075v5.549c0,0.367,0.047,0.662,0.139,0.883
		c0.092,0.223,0.217,0.393,0.377,0.512c0.162,0.117,0.352,0.195,0.574,0.234c0.221,0.039,0.463,0.057,0.723,0.057h0.068v0.986
		h-4.082v-8.105c0-0.513-0.045-0.967-0.137-1.365c-0.092-0.397-0.24-0.733-0.441-1.009c-0.203-0.275-0.469-0.483-0.797-0.625
		c-0.33-0.141-0.73-0.212-1.205-0.212c-0.488,0-0.912,0.09-1.268,0.27s-0.648,0.436-0.883,0.768
		c-0.232,0.333-0.406,0.734-0.521,1.204c-0.113,0.47-0.172,0.991-0.172,1.565v4.953c0,0.344,0.053,0.621,0.154,0.832
		c0.104,0.209,0.244,0.369,0.42,0.475c0.176,0.107,0.379,0.178,0.613,0.213c0.232,0.035,0.479,0.051,0.738,0.051H498.461z"/>
	<path d="M513.367,85.396c-0.85,0-1.611-0.145-2.289-0.43c-0.676-0.287-1.246-0.707-1.713-1.256
		c-0.467-0.551-0.824-1.225-1.072-2.023s-0.373-1.707-0.373-2.725c0-2.193,0.451-3.844,1.354-4.953
		c0.902-1.108,2.186-1.663,3.852-1.663c0.758,0,1.438,0.119,2.041,0.355c0.605,0.237,1.117,0.591,1.537,1.061
		c0.42,0.47,0.744,1.055,0.969,1.754c0.227,0.7,0.338,1.512,0.338,2.438v1.076h-7.818c0.014,0.857,0.1,1.594,0.258,2.209
		c0.156,0.615,0.381,1.121,0.676,1.518c0.295,0.398,0.656,0.691,1.084,0.879c0.428,0.186,0.92,0.279,1.479,0.279
		c0.404,0,0.781-0.045,1.129-0.137s0.664-0.215,0.947-0.367c0.281-0.152,0.533-0.326,0.75-0.521c0.219-0.195,0.396-0.4,0.533-0.613
		c0.107,0.045,0.209,0.141,0.305,0.287c0.096,0.145,0.143,0.316,0.143,0.516c0,0.236-0.084,0.49-0.252,0.762
		s-0.424,0.521-0.768,0.752c-0.344,0.229-0.775,0.42-1.291,0.572S514.062,85.396,513.367,85.396z M513.08,73.609
		c-0.871,0-1.543,0.354-2.012,1.061c-0.471,0.707-0.748,1.741-0.832,3.102h5.4c0-0.619-0.045-1.186-0.137-1.698
		c-0.092-0.512-0.238-0.952-0.436-1.318c-0.199-0.367-0.461-0.65-0.787-0.849C513.953,73.708,513.555,73.609,513.08,73.609z"/>
	<path d="M317.4,115.357v-0.986h0.311c0.268,0,0.518-0.018,0.75-0.057c0.234-0.039,0.436-0.117,0.609-0.234
		c0.172-0.119,0.309-0.289,0.412-0.512c0.104-0.221,0.154-0.516,0.154-0.883v-5.504H312v5.504c0,0.367,0.053,0.662,0.156,0.883
		c0.102,0.223,0.24,0.393,0.412,0.512c0.172,0.117,0.377,0.195,0.613,0.234s0.484,0.057,0.746,0.057h0.309v0.986h-6.834v-0.986
		h0.299c0.268,0,0.518-0.018,0.75-0.057c0.234-0.039,0.438-0.117,0.613-0.234c0.176-0.119,0.314-0.289,0.414-0.512
		c0.1-0.221,0.148-0.516,0.148-0.883v-11.512c0-0.344-0.051-0.621-0.154-0.83c-0.104-0.211-0.242-0.373-0.418-0.488
		c-0.178-0.115-0.381-0.189-0.615-0.223c-0.232-0.035-0.479-0.053-0.738-0.053h-0.299v-0.986h6.834v0.986h-0.309
		c-0.262,0-0.51,0.02-0.746,0.059c-0.236,0.037-0.441,0.115-0.613,0.234s-0.311,0.289-0.412,0.51
		c-0.104,0.223-0.156,0.516-0.156,0.883v4.748h7.637v-4.748c0-0.367-0.051-0.66-0.154-0.883c-0.104-0.221-0.24-0.391-0.412-0.51
		c-0.174-0.119-0.375-0.197-0.609-0.234c-0.232-0.039-0.482-0.059-0.75-0.059H317.4v-0.986h6.834v0.986h-0.297
		c-0.268,0-0.52,0.02-0.752,0.059c-0.232,0.037-0.438,0.115-0.613,0.234s-0.314,0.289-0.412,0.51c-0.1,0.223-0.15,0.516-0.15,0.883
		v11.535c0,0.344,0.053,0.621,0.156,0.832c0.102,0.209,0.242,0.369,0.418,0.475c0.176,0.107,0.381,0.178,0.613,0.213
		s0.48,0.051,0.74,0.051h0.297v0.986H317.4z"/>
	<path d="M337.502,112.801c0,0.344,0.051,0.621,0.154,0.832c0.104,0.209,0.242,0.369,0.418,0.475
		c0.176,0.107,0.381,0.178,0.613,0.213c0.234,0.035,0.48,0.051,0.74,0.051h0.068v0.986h-3.727l-0.309-1.902h-0.115
		c-0.236,0.443-0.498,0.803-0.785,1.078c-0.287,0.273-0.59,0.49-0.912,0.646c-0.32,0.158-0.658,0.264-1.008,0.322
		c-0.354,0.057-0.719,0.086-1.102,0.086c-0.619,0-1.17-0.088-1.65-0.264c-0.482-0.176-0.887-0.451-1.217-0.826
		c-0.328-0.375-0.578-0.852-0.75-1.434c-0.172-0.58-0.258-1.273-0.258-2.074v-5.631c0-0.344-0.053-0.621-0.156-0.832
		c-0.102-0.209-0.242-0.371-0.418-0.486s-0.381-0.191-0.613-0.229c-0.232-0.039-0.48-0.059-0.74-0.059h-0.068v-0.986h4.209v8.107
		c0,0.512,0.039,0.967,0.119,1.363c0.08,0.398,0.215,0.734,0.402,1.01s0.439,0.484,0.756,0.625c0.318,0.141,0.713,0.213,1.188,0.213
		c0.52,0,0.965-0.092,1.336-0.275s0.676-0.441,0.916-0.775c0.242-0.332,0.42-0.73,0.533-1.197c0.115-0.467,0.174-0.982,0.174-1.549
		v-4.838c0-0.367-0.053-0.662-0.156-0.889c-0.104-0.225-0.24-0.396-0.412-0.516s-0.375-0.197-0.607-0.234
		c-0.234-0.039-0.484-0.059-0.752-0.059h-0.068v-0.986h4.197V112.801z"/>
	<path d="M347.008,114.371v0.986h-6.318v-0.986h0.309c0.268,0,0.514-0.018,0.734-0.057c0.223-0.039,0.412-0.117,0.574-0.234
		c0.16-0.119,0.283-0.289,0.371-0.512c0.088-0.221,0.133-0.516,0.133-0.883v-7.326c0-0.344-0.047-0.621-0.139-0.832
		c-0.09-0.209-0.217-0.371-0.377-0.486s-0.352-0.191-0.574-0.229c-0.221-0.039-0.463-0.059-0.723-0.059h-0.068v-0.986h3.682
		l0.309,1.904h0.115c0.236-0.436,0.484-0.793,0.744-1.072s0.537-0.496,0.832-0.654c0.295-0.156,0.604-0.264,0.93-0.32
		c0.324-0.057,0.67-0.086,1.037-0.086c0.383,0,0.744,0.039,1.09,0.115c0.344,0.076,0.662,0.197,0.957,0.365
		c0.293,0.17,0.557,0.389,0.791,0.66c0.232,0.271,0.422,0.602,0.566,0.992h0.195c0.238-0.436,0.494-0.793,0.77-1.072
		c0.273-0.279,0.566-0.496,0.877-0.654c0.309-0.156,0.635-0.264,0.975-0.32s0.693-0.086,1.061-0.086c0.596,0,1.131,0.09,1.605,0.27
		c0.473,0.18,0.875,0.455,1.203,0.826c0.328,0.369,0.58,0.846,0.758,1.426c0.174,0.582,0.264,1.273,0.264,2.076v5.549
		c0,0.367,0.045,0.662,0.137,0.883c0.092,0.223,0.219,0.393,0.379,0.512c0.16,0.117,0.352,0.195,0.572,0.234
		c0.223,0.039,0.463,0.057,0.723,0.057h0.068v0.986h-4.082v-8.105c0-0.512-0.043-0.967-0.131-1.365
		c-0.088-0.396-0.23-0.734-0.424-1.01c-0.195-0.273-0.449-0.482-0.764-0.623c-0.312-0.143-0.695-0.213-1.146-0.213
		c-0.488,0-0.9,0.094-1.232,0.281s-0.602,0.441-0.809,0.762c-0.205,0.322-0.354,0.691-0.441,1.113
		c-0.088,0.42-0.131,0.867-0.131,1.34v5.148c0,0.367,0.045,0.662,0.137,0.883c0.092,0.223,0.219,0.393,0.379,0.512
		c0.16,0.117,0.352,0.195,0.572,0.234c0.223,0.039,0.463,0.057,0.723,0.057h0.068v0.986h-4.08v-8.105
		c0-0.512-0.045-0.967-0.133-1.365c-0.088-0.396-0.229-0.734-0.424-1.01c-0.195-0.273-0.449-0.482-0.764-0.623
		c-0.312-0.143-0.695-0.213-1.146-0.213c-0.512,0-0.941,0.104-1.289,0.309c-0.348,0.207-0.629,0.486-0.844,0.838
		c-0.213,0.352-0.365,0.756-0.457,1.215s-0.139,0.941-0.139,1.445v4.953c0,0.344,0.053,0.621,0.154,0.832
		c0.104,0.209,0.244,0.369,0.42,0.475c0.176,0.107,0.379,0.178,0.613,0.213c0.232,0.035,0.479,0.051,0.738,0.051H347.008z"/>
	<path d="M368.518,103.709c-0.451,0-0.816,0.062-1.096,0.189c-0.279,0.125-0.496,0.303-0.654,0.533
		c-0.156,0.229-0.262,0.5-0.314,0.812c-0.053,0.314-0.08,0.654-0.08,1.021c-0.65,0-1.145-0.111-1.484-0.332
		c-0.342-0.223-0.512-0.605-0.512-1.146c0-0.406,0.111-0.75,0.334-1.033c0.221-0.283,0.525-0.514,0.91-0.693
		c0.387-0.18,0.836-0.311,1.348-0.396c0.512-0.084,1.059-0.125,1.641-0.125c0.719,0,1.344,0.07,1.879,0.211
		c0.535,0.143,0.982,0.373,1.342,0.695c0.359,0.32,0.629,0.738,0.809,1.254c0.18,0.518,0.27,1.15,0.27,1.898v6.088
		c0,0.33,0.027,0.602,0.08,0.814c0.055,0.215,0.139,0.387,0.252,0.516c0.115,0.131,0.266,0.223,0.453,0.275
		c0.188,0.055,0.412,0.08,0.672,0.08h0.068v0.986h-3.176l-0.367-2.018h-0.195c-0.244,0.328-0.48,0.631-0.711,0.906
		c-0.229,0.275-0.48,0.512-0.756,0.711s-0.588,0.354-0.936,0.465c-0.348,0.109-0.766,0.166-1.256,0.166
		c-0.52,0-1.002-0.074-1.449-0.225c-0.447-0.148-0.834-0.379-1.158-0.688c-0.326-0.311-0.58-0.699-0.764-1.17
		c-0.182-0.471-0.273-1.025-0.273-1.668c0-1.246,0.441-2.172,1.33-2.775c0.887-0.604,2.227-0.932,4.023-0.986l1.949-0.068v-1.41
		c0-0.42-0.023-0.809-0.068-1.164c-0.047-0.355-0.145-0.66-0.299-0.916c-0.152-0.258-0.373-0.455-0.658-0.598
		C369.383,103.779,368.998,103.709,368.518,103.709z M365.674,111.953c0,0.732,0.154,1.281,0.465,1.645
		c0.309,0.363,0.789,0.545,1.438,0.545c0.475,0,0.904-0.076,1.291-0.229c0.385-0.154,0.715-0.371,0.986-0.654
		s0.479-0.627,0.625-1.031c0.145-0.406,0.217-0.857,0.217-1.354v-1.904l-1.502,0.07c-0.664,0.029-1.221,0.111-1.668,0.246
		c-0.447,0.133-0.809,0.32-1.084,0.561c-0.275,0.242-0.473,0.537-0.59,0.889C365.732,111.088,365.674,111.494,365.674,111.953z"/>
	<path d="M382.414,114.371v0.986h-6.318v-0.986h0.195c0.268,0,0.518-0.018,0.752-0.057c0.232-0.039,0.436-0.117,0.607-0.234
		c0.172-0.119,0.309-0.289,0.412-0.512c0.104-0.221,0.154-0.516,0.154-0.883v-7.326c0-0.344-0.051-0.621-0.154-0.832
		c-0.104-0.209-0.242-0.371-0.418-0.486s-0.381-0.191-0.613-0.229c-0.234-0.039-0.48-0.059-0.74-0.059h-0.068v-0.986h3.795
		l0.311,1.904h0.113c0.246-0.436,0.504-0.793,0.775-1.072c0.27-0.279,0.557-0.496,0.859-0.654c0.301-0.156,0.623-0.264,0.963-0.32
		s0.697-0.086,1.072-0.086c0.619,0,1.172,0.09,1.656,0.27c0.486,0.18,0.898,0.455,1.238,0.826c0.34,0.369,0.6,0.846,0.779,1.426
		c0.18,0.582,0.27,1.273,0.27,2.076v5.549c0,0.367,0.045,0.662,0.133,0.883c0.088,0.223,0.213,0.393,0.373,0.512
		c0.16,0.117,0.352,0.195,0.572,0.234c0.223,0.039,0.463,0.057,0.723,0.057h0.08v0.986h-4.094v-8.105
		c0-0.512-0.045-0.967-0.137-1.365c-0.092-0.396-0.238-0.734-0.441-1.01c-0.203-0.273-0.469-0.482-0.797-0.623
		c-0.328-0.143-0.73-0.213-1.203-0.213c-0.535,0-0.984,0.104-1.348,0.309c-0.363,0.207-0.656,0.486-0.877,0.838
		c-0.223,0.352-0.381,0.756-0.477,1.215s-0.143,0.941-0.143,1.445v4.953c0,0.344,0.051,0.621,0.154,0.832
		c0.104,0.209,0.242,0.369,0.418,0.475c0.176,0.107,0.381,0.178,0.613,0.213c0.234,0.035,0.48,0.051,0.74,0.051H382.414z"/>
	<path d="M391.438,114.371c0.26,0,0.506-0.016,0.74-0.051c0.232-0.035,0.438-0.105,0.613-0.213c0.176-0.105,0.314-0.266,0.418-0.475
		c0.104-0.211,0.154-0.488,0.154-0.832v-7.441c0-0.344-0.051-0.621-0.154-0.832c-0.104-0.209-0.242-0.371-0.418-0.486
		s-0.381-0.191-0.613-0.229c-0.234-0.039-0.48-0.059-0.74-0.059h-0.068v-0.986h4.197v9.918c0,0.367,0.051,0.662,0.154,0.883
		c0.104,0.223,0.24,0.393,0.412,0.512c0.172,0.117,0.377,0.195,0.613,0.234c0.238,0.039,0.486,0.057,0.746,0.057h0.309v0.986h-6.672
		v-0.986H391.438z M393.031,98.961c0-0.275,0.035-0.504,0.104-0.688s0.164-0.332,0.287-0.447c0.121-0.115,0.264-0.195,0.424-0.24
		c0.16-0.047,0.336-0.068,0.527-0.068c0.184,0,0.355,0.021,0.516,0.068c0.16,0.045,0.301,0.125,0.42,0.24
		c0.117,0.115,0.213,0.264,0.285,0.447s0.109,0.412,0.109,0.688s-0.037,0.506-0.109,0.688c-0.072,0.184-0.168,0.334-0.285,0.447
		c-0.119,0.115-0.26,0.197-0.42,0.248c-0.16,0.049-0.332,0.074-0.516,0.074c-0.191,0-0.367-0.025-0.527-0.074
		c-0.16-0.051-0.303-0.133-0.424-0.248c-0.123-0.113-0.219-0.264-0.287-0.447C393.066,99.467,393.031,99.236,393.031,98.961z"/>
	<path d="M404.326,114.35c0.283,0,0.543-0.016,0.779-0.047c0.236-0.029,0.479-0.068,0.723-0.115v1.033
		c-0.1,0.045-0.229,0.092-0.391,0.137c-0.16,0.047-0.334,0.086-0.521,0.121s-0.383,0.061-0.59,0.08s-0.4,0.029-0.584,0.029
		c-0.598,0-1.109-0.064-1.537-0.189c-0.428-0.127-0.779-0.33-1.055-0.613s-0.48-0.658-0.613-1.125
		c-0.135-0.465-0.201-1.035-0.201-1.707v-7.844h-1.789v-0.939c0.283,0,0.594-0.059,0.936-0.172c0.34-0.115,0.639-0.307,0.9-0.574
		c0.266-0.291,0.482-0.637,0.646-1.037c0.164-0.402,0.309-0.904,0.43-1.508h1.078v2.889h3.074v1.342h-3.074v7.912
		c0,0.803,0.162,1.391,0.488,1.766C403.35,114.162,403.783,114.35,404.326,114.35z"/>
	<path d="M407.215,114.371c0.26,0,0.506-0.016,0.74-0.051c0.232-0.035,0.438-0.105,0.613-0.213c0.176-0.105,0.314-0.266,0.418-0.475
		c0.104-0.211,0.154-0.488,0.154-0.832v-7.441c0-0.344-0.051-0.621-0.154-0.832c-0.104-0.209-0.242-0.371-0.418-0.486
		s-0.381-0.191-0.613-0.229c-0.234-0.039-0.48-0.059-0.74-0.059h-0.068v-0.986h4.197v9.918c0,0.367,0.051,0.662,0.154,0.883
		c0.104,0.223,0.24,0.393,0.412,0.512c0.172,0.117,0.377,0.195,0.613,0.234c0.238,0.039,0.486,0.057,0.746,0.057h0.309v0.986h-6.672
		v-0.986H407.215z M408.809,98.961c0-0.275,0.035-0.504,0.104-0.688s0.164-0.332,0.287-0.447c0.121-0.115,0.264-0.195,0.424-0.24
		c0.16-0.047,0.336-0.068,0.527-0.068c0.184,0,0.355,0.021,0.516,0.068c0.16,0.045,0.301,0.125,0.42,0.24
		c0.117,0.115,0.213,0.264,0.285,0.447s0.109,0.412,0.109,0.688s-0.037,0.506-0.109,0.688c-0.072,0.184-0.168,0.334-0.285,0.447
		c-0.119,0.115-0.26,0.197-0.42,0.248c-0.16,0.049-0.332,0.074-0.516,0.074c-0.191,0-0.367-0.025-0.527-0.074
		c-0.16-0.051-0.303-0.133-0.424-0.248c-0.123-0.113-0.219-0.264-0.287-0.447C408.844,99.467,408.809,99.236,408.809,98.961z"/>
	<path d="M420.619,115.588c-0.848,0-1.611-0.145-2.287-0.43c-0.676-0.287-1.248-0.707-1.715-1.256
		c-0.465-0.551-0.822-1.225-1.072-2.023c-0.248-0.799-0.371-1.707-0.371-2.725c0-2.193,0.451-3.844,1.352-4.953
		c0.902-1.107,2.188-1.662,3.854-1.662c0.756,0,1.438,0.119,2.041,0.355s1.115,0.59,1.537,1.061c0.42,0.471,0.742,1.055,0.969,1.754
		c0.225,0.699,0.338,1.512,0.338,2.438v1.076h-7.82c0.016,0.857,0.102,1.594,0.258,2.209s0.383,1.121,0.676,1.518
		c0.295,0.398,0.656,0.691,1.084,0.879c0.428,0.186,0.922,0.279,1.48,0.279c0.404,0,0.781-0.045,1.129-0.137
		s0.662-0.215,0.945-0.367s0.533-0.326,0.752-0.521c0.217-0.195,0.395-0.4,0.533-0.613c0.105,0.045,0.207,0.141,0.303,0.287
		c0.096,0.145,0.145,0.316,0.145,0.516c0,0.236-0.084,0.49-0.254,0.762c-0.168,0.271-0.424,0.521-0.768,0.752
		c-0.344,0.229-0.773,0.42-1.289,0.572S421.314,115.588,420.619,115.588z M420.332,103.801c-0.871,0-1.541,0.354-2.012,1.061
		s-0.746,1.74-0.83,3.102h5.4c0-0.619-0.047-1.186-0.139-1.697s-0.236-0.951-0.436-1.318s-0.461-0.65-0.785-0.85
		C421.207,103.9,420.807,103.801,420.332,103.801z"/>
	<path d="M431.375,115.588c-0.59,0-1.123-0.053-1.6-0.156c-0.479-0.102-0.885-0.26-1.223-0.469
		c-0.336-0.211-0.596-0.471-0.779-0.779c-0.184-0.311-0.275-0.672-0.275-1.084c0-0.314,0.053-0.576,0.156-0.785
		c0.102-0.211,0.229-0.377,0.377-0.5c0.15-0.121,0.311-0.207,0.482-0.258c0.172-0.049,0.326-0.074,0.465-0.074
		c0,0.412,0.041,0.799,0.125,1.158s0.227,0.674,0.424,0.945c0.199,0.271,0.461,0.486,0.787,0.643
		c0.324,0.156,0.723,0.234,1.197,0.234c0.42,0,0.791-0.051,1.113-0.154c0.32-0.104,0.59-0.248,0.807-0.436
		c0.219-0.188,0.385-0.412,0.5-0.676c0.113-0.264,0.172-0.553,0.172-0.867c0-0.289-0.045-0.539-0.133-0.75s-0.24-0.408-0.457-0.59
		c-0.219-0.184-0.516-0.371-0.889-0.562c-0.375-0.191-0.846-0.408-1.412-0.654c-0.604-0.268-1.129-0.525-1.576-0.773
		s-0.816-0.518-1.105-0.809c-0.291-0.291-0.51-0.621-0.654-0.992c-0.145-0.369-0.217-0.812-0.217-1.324
		c0-0.535,0.104-1.008,0.314-1.422c0.211-0.412,0.51-0.758,0.9-1.037c0.389-0.279,0.855-0.49,1.398-0.637
		c0.543-0.145,1.146-0.217,1.812-0.217c0.557,0,1.051,0.057,1.479,0.172c0.428,0.113,0.787,0.27,1.078,0.463
		c0.289,0.195,0.508,0.426,0.652,0.689c0.146,0.264,0.219,0.541,0.219,0.83c0,0.43-0.146,0.771-0.441,1.027
		s-0.713,0.383-1.256,0.383c0-0.787-0.162-1.398-0.486-1.834c-0.326-0.436-0.836-0.654-1.531-0.654
		c-0.398,0-0.738,0.047-1.021,0.139c-0.281,0.092-0.514,0.221-0.693,0.391c-0.18,0.168-0.311,0.365-0.395,0.596
		c-0.084,0.229-0.127,0.48-0.127,0.756c0,0.299,0.053,0.557,0.16,0.775c0.107,0.217,0.277,0.418,0.51,0.602
		c0.234,0.184,0.535,0.361,0.906,0.533s0.816,0.365,1.336,0.578c0.619,0.26,1.15,0.516,1.594,0.77
		c0.443,0.252,0.809,0.527,1.096,0.824c0.287,0.299,0.498,0.635,0.637,1.01c0.137,0.375,0.205,0.807,0.205,1.295
		c0,0.611-0.109,1.146-0.332,1.605c-0.221,0.459-0.535,0.844-0.939,1.152c-0.406,0.311-0.893,0.541-1.463,0.693
		C432.703,115.51,432.07,115.588,431.375,115.588z"/>
</g>
<line fill="#FFFFFF" stroke="#999999" stroke-width="0.5" stroke-miterlimit="10" x1="277.433" y1="60.61" x2="277.433" y2="89.125"/>
</svg>
